<svg width="31" height="31" viewBox="0 0 31 31" fill="none" xmlns="http://www.w3.org/2000/svg">
<g id="settings_24px">
<path id="icon/action/settings_24px" fill-rule="evenodd" clip-rule="evenodd" d="M25.1903 15.5C25.1903 15.9392 25.1516 16.3525 25.0999 16.7659L27.8253 18.8971C28.0708 19.0909 28.1353 19.4396 27.9803 19.7238L25.397 24.193C25.2808 24.3996 25.0612 24.5159 24.8416 24.5159C24.7641 24.5159 24.6866 24.503 24.6091 24.4771L21.3928 23.1855C20.7212 23.6892 19.9978 24.1284 19.2099 24.4513L18.7191 27.8742C18.6803 28.1842 18.4091 28.4167 18.0862 28.4167H12.9195C12.5966 28.4167 12.3253 28.1842 12.2866 27.8742L11.7958 24.4513C11.0078 24.1284 10.2845 23.7021 9.61284 23.1855L6.39659 24.4771C6.33201 24.503 6.25451 24.5159 6.17701 24.5159C5.94451 24.5159 5.72493 24.3996 5.60868 24.193L3.02534 19.7238C2.87034 19.4396 2.93493 19.0909 3.18034 18.8971L5.90576 16.7659C5.85409 16.3525 5.81534 15.9263 5.81534 15.5C5.81534 15.0738 5.85409 14.6475 5.90576 14.2342L3.18034 12.103C2.93493 11.9092 2.85743 11.5605 3.02534 11.2763L5.60868 6.80712C5.72493 6.60046 5.94451 6.48421 6.16409 6.48421C6.24159 6.48421 6.31909 6.49712 6.39659 6.52296L9.61284 7.81462C10.2845 7.31087 11.0078 6.87171 11.7958 6.54879L12.2866 3.12587C12.3253 2.81587 12.5966 2.58337 12.9195 2.58337H18.0862C18.4091 2.58337 18.6803 2.81587 18.7191 3.12587L19.2099 6.54879C19.9978 6.87171 20.7212 7.29796 21.3928 7.81462L24.6091 6.52296C24.6737 6.49712 24.7512 6.48421 24.8287 6.48421C25.0612 6.48421 25.2808 6.60046 25.397 6.80712L27.9803 11.2763C28.1353 11.5605 28.0708 11.9092 27.8253 12.103L25.0999 14.2342C25.1516 14.6475 25.1903 15.0609 25.1903 15.5ZM22.607 15.5C22.607 15.2288 22.5941 14.9575 22.5424 14.5571L22.3616 13.0975L23.5112 12.1934L24.8933 11.0955L23.9891 9.53254L22.3487 10.1913L20.9795 10.7467L19.8041 9.84254C19.2874 9.45504 18.7708 9.15796 18.2153 8.92546L16.8462 8.37004L16.6395 6.91046L16.3941 5.16671H14.5987L14.3403 6.91046L14.1337 8.37004L12.7645 8.92546C12.2349 9.14504 11.7053 9.45504 11.1499 9.86837L9.98743 10.7467L8.6441 10.2042L7.00368 9.54546L6.09951 11.1084L7.49451 12.1934L8.6441 13.0975L8.46326 14.5571C8.42451 14.9446 8.39868 15.2417 8.39868 15.5C8.39868 15.7584 8.42451 16.0555 8.46326 16.4559L8.6441 17.9155L7.49451 18.8196L6.09951 19.9046L7.00368 21.4675L8.6441 20.8088L10.0133 20.2534L11.1887 21.1575C11.7053 21.545 12.222 21.8421 12.7774 22.0746L14.1466 22.63L14.3533 24.0896L14.5987 25.8334H16.407L16.6653 24.0896L16.872 22.63L18.2412 22.0746C18.7708 21.855 19.3003 21.545 19.8558 21.1317L21.0183 20.2534L22.3616 20.7959L24.002 21.4546L24.9062 19.8917L23.5112 18.8067L22.3616 17.9025L22.5424 16.443C22.5812 16.0555 22.607 15.7713 22.607 15.5ZM15.5028 10.3334C12.6483 10.3334 10.3362 12.6455 10.3362 15.5C10.3362 18.3546 12.6483 20.6667 15.5028 20.6667C18.3574 20.6667 20.6695 18.3546 20.6695 15.5C20.6695 12.6455 18.3574 10.3334 15.5028 10.3334ZM12.9195 15.5C12.9195 16.9209 14.082 18.0834 15.5028 18.0834C16.9237 18.0834 18.0862 16.9209 18.0862 15.5C18.0862 14.0792 16.9237 12.9167 15.5028 12.9167C14.082 12.9167 12.9195 14.0792 12.9195 15.5Z" fill="black" fill-opacity="0.54"/>
</g>
</svg>
